<?xml version="1.0" standalone="no"?><!-- Generator: Gravit.io --><svg xmlns="http://www.w3.org/2000/svg" xmlns:xlink="http://www.w3.org/1999/xlink" style="isolation:isolate" viewBox="0 0 800 1400" width="800" height="1400"><defs><clipPath id="_clipPath_zMCnPaE2U6Unlso63OlEss8iB1CQo4ba"><rect width="800" height="1400"/></clipPath></defs><g clip-path="url(#_clipPath_zMCnPaE2U6Unlso63OlEss8iB1CQo4ba)"><g style="isolation:isolate"><defs><filter id="06Skz2wjAm6YCPirhJY1XnwW9ehT0Re9" x="199.076" y="171.898" width="421.457" height="421.457" filterUnits="userSpaceOnUse"><feGaussianBlur xmlns="http://www.w3.org/2000/svg" in="SourceGraphic" stdDeviation="4.293609062839028"/><feOffset xmlns="http://www.w3.org/2000/svg" dx="0" dy="0" result="pf_100_offsetBlur"/><feFlood xmlns="http://www.w3.org/2000/svg" flood-color="#000000" flood-opacity="0.25"/><feComposite xmlns="http://www.w3.org/2000/svg" in2="pf_100_offsetBlur" operator="in" result="pf_100_dropShadow"/><feBlend xmlns="http://www.w3.org/2000/svg" in="SourceGraphic" in2="pf_100_dropShadow" mode="normal"/></filter></defs><g filter="url(#06Skz2wjAm6YCPirhJY1XnwW9ehT0Re9)"><circle vector-effect="non-scaling-stroke" cx="409.8047421646901" cy="382.6260290780945" r="196.72851562500009" fill="rgb(255,255,255)" stroke-width="2" stroke="rgb(209,209,209)" stroke-linejoin="miter" stroke-linecap="square" stroke-miterlimit="3"/></g><g transform="matrix(1,0,0,1,284.305,280)"><text transform="matrix(1,0,0,1,0.24,36.967)" style="font-family:&quot;Oxygen&quot;;font-weight:400;font-size:36px;font-style:normal;fill:#000000;stroke:none;">Caluma Service</text></g><g transform="matrix(1,0,0,1,265.355,336.915)"><text transform="matrix(1,0,0,1,0.817,20.537)" style="font-family:&quot;Oxygen&quot;;font-weight:300;font-size:20px;font-style:normal;fill:#747474;stroke:none;">A collaborative form editing API </text><text transform="matrix(1,0,0,1,1.359,46.045)" style="font-family:&quot;Oxygen&quot;;font-weight:300;font-size:20px;font-style:normal;fill:#747474;stroke:none;">service built to fit right into your </text><text transform="matrix(1,0,0,1,11.471,71.66)" style="font-family:&quot;Oxygen&quot;;font-weight:300;font-size:20px;font-style:normal;fill:#747474;stroke:none;">existing backend architecture</text></g><g><linearGradient id="_lgradient_0" x1="0" y1="0.5" x2="0.70907372578932" y2="1.2051343498903258" gradientTransform="matrix(42.906,0,0,43.001,380.876,439.379)" gradientUnits="userSpaceOnUse"><stop offset="12.35378717593976%" stop-opacity="1" style="stop-color:rgb(56,126,184)"/><stop offset="79.03378717593976%" stop-opacity="1" style="stop-color:rgb(54,105,148)"/></linearGradient><path d=" M 409.596 439.379 C 394.908 439.379 395.825 445.749 395.825 445.749 L 395.842 452.348 L 409.858 452.348 L 409.858 454.329 L 390.275 454.329 C 390.275 454.329 380.876 453.263 380.876 468.083 C 380.876 482.904 389.079 482.378 389.079 482.378 L 393.975 482.378 L 393.975 475.501 C 393.975 475.501 393.711 467.297 402.048 467.297 L 415.95 467.297 C 415.95 467.297 423.76 467.424 423.76 459.749 L 423.76 447.059 C 423.76 447.059 424.946 439.379 409.596 439.379 Z  M 401.868 443.817 C 402.537 443.816 403.178 444.082 403.651 444.555 C 404.124 445.028 404.39 445.67 404.389 446.339 C 404.39 447.007 404.124 447.649 403.651 448.122 C 403.178 448.595 402.537 448.861 401.868 448.86 C 401.199 448.861 400.557 448.595 400.084 448.122 C 399.611 447.649 399.345 447.007 399.346 446.339 C 399.345 445.67 399.611 445.028 400.084 444.555 C 400.557 444.082 401.199 443.816 401.868 443.817 L 401.868 443.817 Z " fill="url(#_lgradient_0)"/><linearGradient id="_lgradient_1" x1="0" y1="0.5" x2="0.7251610669729782" y2="1.188579281525818" gradientTransform="matrix(42.906,0,0,43.001,395.828,453.935)" gradientUnits="userSpaceOnUse"><stop offset="19.042114406267448%" stop-opacity="1" style="stop-color:rgb(255,224,82)"/><stop offset="90.65611440626743%" stop-opacity="1" style="stop-color:rgb(255,195,49)"/></linearGradient><path d=" M 410.013 496.936 C 424.701 496.936 423.784 490.567 423.784 490.567 L 423.768 483.968 L 409.751 483.968 L 409.751 481.987 L 429.335 481.987 C 429.335 481.987 438.734 483.053 438.734 468.232 C 438.734 453.412 430.53 453.937 430.53 453.937 L 425.634 453.937 L 425.634 460.814 C 425.634 460.814 425.898 469.018 417.562 469.018 L 403.66 469.018 C 403.66 469.018 395.849 468.892 395.849 476.567 L 395.849 489.257 C 395.849 489.257 394.663 496.936 410.013 496.936 L 410.013 496.936 Z  M 417.742 492.499 C 417.073 492.5 416.431 492.234 415.958 491.761 C 415.485 491.288 415.22 490.646 415.221 489.977 C 415.22 489.308 415.485 488.667 415.958 488.194 C 416.431 487.721 417.073 487.455 417.742 487.456 C 418.411 487.455 419.053 487.721 419.526 488.194 C 419.999 488.667 420.264 489.308 420.264 489.977 C 420.264 490.646 419.999 491.288 419.526 491.761 C 419.053 492.234 418.411 492.499 417.742 492.499 L 417.742 492.499 Z " fill="url(#_lgradient_1)"/></g><g style="isolation:isolate"><defs><filter id="mfeJMFwCzOoKN28mbrvjP9nAEbkPJI00" x="166" y="424.158" width="129" height="129" filterUnits="userSpaceOnUse"><feGaussianBlur xmlns="http://www.w3.org/2000/svg" in="SourceGraphic" stdDeviation="2.146804531419514"/><feOffset xmlns="http://www.w3.org/2000/svg" dx="0" dy="0" result="pf_100_offsetBlur"/><feFlood xmlns="http://www.w3.org/2000/svg" flood-color="#2DC175" flood-opacity="1"/><feComposite xmlns="http://www.w3.org/2000/svg" in2="pf_100_offsetBlur" operator="in" result="pf_100_dropShadow"/><feBlend xmlns="http://www.w3.org/2000/svg" in="SourceGraphic" in2="pf_100_dropShadow" mode="normal"/></filter></defs><g filter="url(#mfeJMFwCzOoKN28mbrvjP9nAEbkPJI00)"><circle vector-effect="non-scaling-stroke" cx="230.5000000000001" cy="488.65776735934446" r="56.499999999999986" fill="rgb(255,255,255)" stroke-width="2" stroke="rgb(45,193,117)" stroke-linejoin="miter" stroke-linecap="square" stroke-miterlimit="3"/></g><g><path d=" M 210.5 470.658 L 210.5 458.658 L 258.5 458.658 L 258.5 518.658 L 240.5 518.658" fill="none" vector-effect="non-scaling-stroke" stroke-width="2" stroke="rgb(65,184,131)" stroke-linejoin="round" stroke-linecap="round" stroke-miterlimit="10"/><path d=" M 202.5 470.658 L 240.5 470.658 L 240.5 518.658 L 202.5 518.658 L 202.5 470.658 Z  M 212.5 480.658 L 230.5 480.658 M 212.5 490.658 L 230.5 490.658 M 212.5 498.658 L 222.5 498.658" fill="none" vector-effect="non-scaling-stroke" stroke-width="2" stroke="rgb(65,184,131)" stroke-linejoin="round" stroke-linecap="round" stroke-miterlimit="10"/></g><g transform="matrix(1,0,0,1,116,545.158)"><text transform="matrix(1,0,0,1,0,20.537)" style="font-family:&quot;Oxygen&quot;;font-weight:300;font-size:20px;font-style:normal;fill:#000000;stroke:none;">Forms</text></g></g><g style="isolation:isolate"><defs><filter id="gtwqJWwoNNYyEniN014SXYcMlcml0BHK" x="346.9" y="119.412" width="129" height="129" filterUnits="userSpaceOnUse"><feGaussianBlur xmlns="http://www.w3.org/2000/svg" in="SourceGraphic" stdDeviation="2.146804531419514"/><feOffset xmlns="http://www.w3.org/2000/svg" dx="0" dy="0" result="pf_100_offsetBlur"/><feFlood xmlns="http://www.w3.org/2000/svg" flood-color="#2DC175" flood-opacity="1"/><feComposite xmlns="http://www.w3.org/2000/svg" in2="pf_100_offsetBlur" operator="in" result="pf_100_dropShadow"/><feBlend xmlns="http://www.w3.org/2000/svg" in="SourceGraphic" in2="pf_100_dropShadow" mode="normal"/></filter></defs><g filter="url(#gtwqJWwoNNYyEniN014SXYcMlcml0BHK)"><circle vector-effect="non-scaling-stroke" cx="411.4003949231906" cy="183.91167360934446" r="56.5" fill="rgb(255,255,255)" stroke-width="2" stroke="rgb(45,193,117)" stroke-linejoin="miter" stroke-linecap="square" stroke-miterlimit="3"/></g><g><path d=" M 434.005 157.913 L 434.005 167.913 L 424.005 167.913 M 412.005 210.913 C 399.277 210.912 388.279 202.022 385.608 189.577 C 382.938 177.133 389.321 164.513 400.928 159.291 C 412.535 154.068 426.214 157.66 433.756 167.913 M 424.99 207.591 C 422.797 208.797 420.446 209.69 418.005 210.244 M 433.756 199.913 C 432.4 201.753 430.817 203.414 429.045 204.858 M 437.796 191.926 C 437.375 193.283 436.847 194.604 436.216 195.878" fill="none" vector-effect="non-scaling-stroke" stroke-width="2" stroke="rgb(45,193,117)" stroke-linejoin="round" stroke-linecap="round" stroke-miterlimit="10"/><circle vector-effect="non-scaling-stroke" cx="412.00501939266064" cy="183.9127901560837" r="3" fill="none" stroke-width="2" stroke="rgb(45,193,117)" stroke-linejoin="round" stroke-linecap="round" stroke-miterlimit="10"/><path d=" M 413.966 186.174 L 424.005 193.913 M 412.005 163.913 L 412.005 180.913" fill="none" vector-effect="non-scaling-stroke" stroke-width="2" stroke="rgb(45,193,117)" stroke-linejoin="round" stroke-linecap="round" stroke-miterlimit="10"/></g><g transform="matrix(1,0,0,1,265.9,102.158)"><text transform="matrix(1,0,0,1,0,20.537)" style="font-family:&quot;Oxygen&quot;;font-weight:300;font-size:20px;font-style:normal;fill:#000000;stroke:none;">Workflow</text></g></g><g style="isolation:isolate"><defs><filter id="pEBVYHlGo7s7YbJFC0CDXvnuzyGwc6MX" x="509" y="424.166" width="129" height="129" filterUnits="userSpaceOnUse"><feGaussianBlur xmlns="http://www.w3.org/2000/svg" in="SourceGraphic" stdDeviation="2.146804531419514"/><feOffset xmlns="http://www.w3.org/2000/svg" dx="0" dy="0" result="pf_100_offsetBlur"/><feFlood xmlns="http://www.w3.org/2000/svg" flood-color="#2DC175" flood-opacity="1"/><feComposite xmlns="http://www.w3.org/2000/svg" in2="pf_100_offsetBlur" operator="in" result="pf_100_dropShadow"/><feBlend xmlns="http://www.w3.org/2000/svg" in="SourceGraphic" in2="pf_100_dropShadow" mode="normal"/></filter></defs><g filter="url(#pEBVYHlGo7s7YbJFC0CDXvnuzyGwc6MX)"><circle vector-effect="non-scaling-stroke" cx="573.5" cy="488.66557985934446" r="56.5" fill="rgb(255,255,255)" stroke-width="2" stroke="rgb(45,193,117)" stroke-linejoin="miter" stroke-linecap="square" stroke-miterlimit="3"/></g><g><path d=" M 580 504.666 L 577.8 487.566 C 581.394 485.581 583.19 481.416 582.165 477.441 C 581.141 473.465 577.555 470.687 573.45 470.687 C 569.345 470.687 565.759 473.465 564.735 477.441 C 563.71 481.416 565.506 485.581 569.1 487.566 L 567 504.666 L 580 504.666 Z " fill="none" vector-effect="non-scaling-stroke" stroke-width="2" stroke="rgb(45,193,117)" stroke-linejoin="round" stroke-linecap="round" stroke-miterlimit="10"/><path d=" M 603.5 510.166 C 603.5 514.86 599.694 518.666 595 518.666 L 552 518.666 C 547.306 518.666 543.5 514.86 543.5 510.166 L 543.5 467.166 C 543.5 462.471 547.306 458.666 552 458.666 L 595 458.666 C 599.694 458.666 603.5 462.471 603.5 467.166 L 603.5 510.166 Z " fill="none" vector-effect="non-scaling-stroke" stroke-width="2" stroke="rgb(45,193,117)" stroke-linejoin="round" stroke-linecap="round" stroke-miterlimit="10"/></g><g transform="matrix(1,0,0,1,630,406.912)"><text transform="matrix(1,0,0,1,0,20.537)" style="font-family:&quot;Oxygen&quot;;font-weight:300;font-size:20px;font-style:normal;fill:#000000;stroke:none;">Permissions</text></g></g></g><g style="isolation:isolate"><defs><filter id="l34gEoTqQxgI53Osb34ZgiPxwhjUcjis" x="86" y="630.355" width="630" height="90" filterUnits="userSpaceOnUse"><feGaussianBlur xmlns="http://www.w3.org/2000/svg" in="SourceGraphic" stdDeviation="2.146804531419514"/><feOffset xmlns="http://www.w3.org/2000/svg" dx="0" dy="0" result="pf_100_offsetBlur"/><feFlood xmlns="http://www.w3.org/2000/svg" flood-color="#2DC175" flood-opacity="1"/><feComposite xmlns="http://www.w3.org/2000/svg" in2="pf_100_offsetBlur" operator="in" result="pf_100_dropShadow"/><feBlend xmlns="http://www.w3.org/2000/svg" in="SourceGraphic" in2="pf_100_dropShadow" mode="normal"/></filter></defs><g filter="url(#l34gEoTqQxgI53Osb34ZgiPxwhjUcjis)"><rect x="96" y="640.355" width="610" height="70" transform="matrix(1,0,0,1,0,0)" fill="rgb(255,255,255)" vector-effect="non-scaling-stroke" stroke-width="2" stroke="rgb(45,193,117)" stroke-linejoin="miter" stroke-linecap="square" stroke-miterlimit="3"/></g><g transform="matrix(1,0,0,1,342.75,662.728)"><text transform="matrix(1,0,0,1,0,20.537)" style="font-family:&quot;Oxygen&quot;;font-weight:400;font-size:20px;font-style:normal;fill:#000000;stroke:none;">GraphQL API</text></g><g style="isolation:isolate"><defs><filter id="BFGDqtwlLDD83XdDr3AYCvU0XrXLhdJA" x="660.5" y="598.355" width="86" height="86" filterUnits="userSpaceOnUse"><feGaussianBlur xmlns="http://www.w3.org/2000/svg" in="SourceGraphic" stdDeviation="2.146804531419514"/><feOffset xmlns="http://www.w3.org/2000/svg" dx="0" dy="0" result="pf_100_offsetBlur"/><feFlood xmlns="http://www.w3.org/2000/svg" flood-color="#E10098" flood-opacity="1"/><feComposite xmlns="http://www.w3.org/2000/svg" in2="pf_100_offsetBlur" operator="in" result="pf_100_dropShadow"/><feBlend xmlns="http://www.w3.org/2000/svg" in="SourceGraphic" in2="pf_100_dropShadow" mode="normal"/></filter></defs><g filter="url(#BFGDqtwlLDD83XdDr3AYCvU0XrXLhdJA)"><circle vector-effect="non-scaling-stroke" cx="703.5" cy="641.3545447030939" r="34.999999999999886" fill="rgb(255,255,255)" stroke-width="2" stroke="rgb(225,0,152)" stroke-linejoin="miter" stroke-linecap="square" stroke-miterlimit="3"/></g><g><path d=" M 687.407 652.945 L 685.784 652.008 L 703.866 620.691 L 705.489 621.628 L 687.407 652.945 Z " fill="rgb(225,0,152)"/><path d=" M 685.413 649.506 L 721.576 649.506 L 721.576 651.381 L 685.413 651.381 L 685.413 649.506 Z " fill="rgb(225,0,152)"/><path d=" M 704.217 661.003 L 686.128 650.559 L 687.065 648.936 L 705.154 659.38 L 704.217 661.003 Z  M 719.93 633.784 L 701.842 623.34 L 702.779 621.717 L 720.867 632.161 L 719.93 633.784 Z " fill="rgb(225,0,152)"/><path d=" M 687.07 633.777 L 686.133 632.154 L 704.222 621.71 L 705.159 623.333 L 687.07 633.777 Z " fill="rgb(225,0,152)"/><path d=" M 719.597 652.946 L 701.515 621.628 L 703.138 620.691 L 721.22 652.009 L 719.597 652.946 Z  M 686.846 630.911 L 688.721 630.911 L 688.721 651.798 L 686.846 651.798 L 686.846 630.911 Z  M 718.279 630.911 L 720.154 630.911 L 720.154 651.798 L 718.279 651.798 L 718.279 630.911 Z " fill="rgb(225,0,152)"/><path d=" M 703.898 660.21 L 703.079 658.792 L 718.811 649.709 L 719.63 651.126 L 703.898 660.21 Z " fill="rgb(225,0,152)"/><path d=" M 722.637 652.408 C 721.554 654.294 719.137 654.937 717.252 653.853 C 715.366 652.769 714.723 650.353 715.807 648.468 C 716.891 646.582 719.307 645.939 721.192 647.022 C 723.089 648.118 723.733 650.522 722.637 652.408 Z  M 691.182 634.241 C 690.098 636.127 687.682 636.771 685.796 635.687 C 683.911 634.603 683.267 632.187 684.351 630.301 C 685.435 628.416 687.851 627.772 689.737 628.856 C 691.622 629.951 692.266 632.356 691.182 634.241 Z  M 684.363 652.408 C 683.279 650.522 683.922 648.118 685.808 647.022 C 687.693 645.939 690.098 646.582 691.193 648.468 C 692.277 650.353 691.634 652.758 689.748 653.853 C 687.851 654.937 685.446 654.294 684.363 652.408 Z  M 715.818 634.241 C 714.734 632.356 715.378 629.951 717.263 628.856 C 719.149 627.772 721.554 628.416 722.649 630.301 C 723.733 632.187 723.089 634.592 721.204 635.687 C 719.318 636.771 716.902 636.127 715.818 634.241 Z  M 703.5 663.461 C 701.321 663.461 699.56 661.7 699.56 659.521 C 699.56 657.342 701.321 655.581 703.5 655.581 C 705.679 655.581 707.44 657.342 707.44 659.521 C 707.44 661.689 705.679 663.461 703.5 663.461 Z  M 703.5 627.128 C 701.321 627.128 699.56 625.367 699.56 623.188 C 699.56 621.009 701.321 619.248 703.5 619.248 C 705.679 619.248 707.44 621.009 707.44 623.188 C 707.44 625.367 705.679 627.128 703.5 627.128 Z " fill="rgb(225,0,152)"/></g></g></g><g style="isolation:isolate"><defs><filter id="h7h4SXRiIWEVNTOZ1TJP4855txKeR2Yy" x="199.076" y="831.898" width="421.457" height="421.457" filterUnits="userSpaceOnUse"><feGaussianBlur xmlns="http://www.w3.org/2000/svg" in="SourceGraphic" stdDeviation="4.293609062839028"/><feOffset xmlns="http://www.w3.org/2000/svg" dx="0" dy="0" result="pf_100_offsetBlur"/><feFlood xmlns="http://www.w3.org/2000/svg" flood-color="#000000" flood-opacity="0.25"/><feComposite xmlns="http://www.w3.org/2000/svg" in2="pf_100_offsetBlur" operator="in" result="pf_100_dropShadow"/><feBlend xmlns="http://www.w3.org/2000/svg" in="SourceGraphic" in2="pf_100_dropShadow" mode="normal"/></filter></defs><g filter="url(#h7h4SXRiIWEVNTOZ1TJP4855txKeR2Yy)"><circle vector-effect="non-scaling-stroke" cx="409.8047421646901" cy="1042.626029078095" r="196.72851562500009" fill="rgb(255,255,255)" stroke-width="2" stroke="rgb(209,209,209)" stroke-linejoin="miter" stroke-linecap="square" stroke-miterlimit="3"/></g><g transform="matrix(1,0,0,1,295.805,957.898)"><text transform="matrix(1,0,0,1,0.403,36.967)" style="font-family:&quot;Oxygen&quot;;font-weight:400;font-size:36px;font-style:normal;fill:#000000;stroke:none;">Caluma Client</text></g><g transform="matrix(1,0,0,1,265.355,1015.915)"><text transform="matrix(1,0,0,1,41.207,20.537)" style="font-family:&quot;Oxygen&quot;;font-weight:300;font-size:20px;font-style:normal;fill:#747474;stroke:none;">Caluma Service is web </text><text transform="matrix(1,0,0,1,41.095,45.791)" style="font-family:&quot;Oxygen&quot;;font-weight:300;font-size:20px;font-style:normal;fill:#747474;stroke:none;">framework agnostic. A </text><text transform="matrix(1,0,0,1,8.576,71.299)" style="font-family:&quot;Oxygen&quot;;font-weight:300;font-size:20px;font-style:normal;fill:#747474;stroke:none;">collection of Ember Addons is </text><text transform="matrix(1,0,0,1,31.593,96.553)" style="font-family:&quot;Oxygen&quot;;font-weight:300;font-size:20px;font-style:normal;fill:#747474;stroke:none;">provided for ease of use.</text></g><g style="isolation:isolate"><defs><filter id="oUygzXBDwuz3MKgeTFPSgHOB8TcYPmx6" x="191.482" y="1082" width="96.645" height="96.645" filterUnits="userSpaceOnUse"><feGaussianBlur xmlns="http://www.w3.org/2000/svg" in="SourceGraphic" stdDeviation="2.146804531419514"/><feOffset xmlns="http://www.w3.org/2000/svg" dx="0" dy="0" result="pf_100_offsetBlur"/><feFlood xmlns="http://www.w3.org/2000/svg" flood-color="#F35045" flood-opacity="1"/><feComposite xmlns="http://www.w3.org/2000/svg" in2="pf_100_offsetBlur" operator="in" result="pf_100_dropShadow"/><feBlend xmlns="http://www.w3.org/2000/svg" in="SourceGraphic" in2="pf_100_dropShadow" mode="normal"/></filter></defs><g filter="url(#oUygzXBDwuz3MKgeTFPSgHOB8TcYPmx6)"><circle vector-effect="non-scaling-stroke" cx="239.8047421646902" cy="1130.3227276484527" r="40.32272764845273" fill="rgb(255,255,255)" stroke-width="2" stroke="rgb(243,80,69)" stroke-linejoin="miter" stroke-linecap="square" stroke-miterlimit="3"/></g><g><path d=" M 244.874 1142.823 C 245.187 1143.274 245.378 1143.239 245.621 1143.135 C 245.864 1143.031 258.364 1138.812 258.746 1138.674 C 259.128 1138.535 259.006 1138.413 258.885 1138.222 C 258.763 1138.031 254.596 1132.371 254.388 1132.041 C 254.18 1131.712 254.076 1131.781 253.746 1131.885 L 240.495 1135.333 C 240.495 1135.333 244.562 1142.371 244.874 1142.823 Z  M 259.805 1137.059 L 259.805 1130.435 C 258.314 1130.832 256.428 1131.334 255.684 1131.532 C 256.807 1133.035 258.563 1135.386 259.805 1137.059 Z  M 255.671 1123.373 C 255.467 1123.419 250.945 1124.236 250.666 1124.274 C 250.388 1124.311 250.481 1124.469 250.592 1124.626 L 254.571 1130.086 C 254.571 1130.086 259.437 1128.879 259.734 1128.814 C 259.758 1128.809 259.782 1128.803 259.805 1128.797 L 259.805 1128.074 C 258.92 1126.953 256.511 1123.9 256.303 1123.614 C 256.052 1123.271 255.876 1123.327 255.671 1123.373 L 255.671 1123.373 Z " fill="rgb(243,80,69)"/><path d=" M 227.22 1114.797 C 228.199 1114.752 228.288 1114.975 228.718 1115.613 L 239.526 1133.682 L 253.116 1130.427 C 252.363 1129.359 248.945 1124.513 248.614 1124.051 C 248.243 1123.531 248.624 1123.289 249.227 1123.187 C 249.831 1123.085 255.031 1122.212 255.476 1122.147 C 255.922 1122.082 256.275 1121.924 256.999 1122.797 C 257.37 1123.244 258.626 1124.808 259.805 1126.275 L 259.805 1117.823 C 259.805 1115.757 259.071 1113.99 257.604 1112.523 C 256.137 1111.056 254.371 1110.323 252.305 1110.323 L 227.305 1110.323 C 225.239 1110.323 223.472 1111.056 222.005 1112.523 C 221.164 1113.365 220.565 1114.305 220.206 1115.344 C 222.656 1115.142 226.535 1114.828 227.22 1114.797 L 227.22 1114.797 Z " fill="rgb(243,80,69)"/><path d=" M 246.1 1145.255 C 244.954 1145.602 244.44 1145.774 243.694 1144.732 C 243.135 1143.952 240.111 1138.507 238.629 1135.823 C 235.823 1136.557 230.689 1137.897 229.209 1138.253 C 227.764 1138.6 227.146 1137.734 226.909 1137.2 C 226.743 1136.825 222.506 1127.691 219.805 1121.831 L 219.805 1142.823 C 219.805 1144.889 220.538 1146.655 222.005 1148.122 C 223.472 1149.589 225.239 1150.323 227.305 1150.323 L 252.305 1150.323 C 254.371 1150.323 256.137 1149.589 257.604 1148.122 C 259.071 1146.655 259.805 1144.889 259.805 1142.823 L 259.805 1140.357 C 256.736 1141.479 246.872 1145.021 246.1 1145.255 Z " fill="rgb(243,80,69)"/><path d=" M 229.244 1136.149 C 229.65 1136.056 237.262 1134.234 237.424 1134.2 C 237.587 1134.165 237.691 1134.072 237.517 1133.77 C 237.343 1133.469 227.371 1116.256 227.371 1116.256 C 227.279 1116.098 227.305 1116.046 227.055 1116.059 C 226.832 1116.071 221.19 1116.574 219.884 1116.683 C 219.845 1116.959 219.821 1117.237 219.812 1117.516 C 221.138 1120.231 228.749 1135.928 228.792 1136.056 C 228.838 1136.195 228.838 1136.242 229.244 1136.149 L 229.244 1136.149 Z " fill="rgb(243,80,69)"/></g></g><g style="isolation:isolate"><defs><filter id="hwUQ073gPPTuWBwZoyXZ0iXq7n9tLBSV" x="531.482" y="1082" width="96.645" height="96.645" filterUnits="userSpaceOnUse"><feGaussianBlur xmlns="http://www.w3.org/2000/svg" in="SourceGraphic" stdDeviation="2.146804531419514"/><feOffset xmlns="http://www.w3.org/2000/svg" dx="0" dy="0" result="pf_100_offsetBlur"/><feFlood xmlns="http://www.w3.org/2000/svg" flood-color="#A51601" flood-opacity="1"/><feComposite xmlns="http://www.w3.org/2000/svg" in2="pf_100_offsetBlur" operator="in" result="pf_100_dropShadow"/><feBlend xmlns="http://www.w3.org/2000/svg" in="SourceGraphic" in2="pf_100_dropShadow" mode="normal"/></filter></defs><g filter="url(#hwUQ073gPPTuWBwZoyXZ0iXq7n9tLBSV)"><circle vector-effect="non-scaling-stroke" cx="579.8047421646897" cy="1130.3227276484522" r="40.32272764845277" fill="rgb(255,255,255)" stroke-width="2" stroke="rgb(158,12,0)" stroke-linejoin="miter" stroke-linecap="square" stroke-miterlimit="3"/></g><g><linearGradient id="_lgradient_2" x1="0" y1="0.5" x2="0.4928347435788145" y2="1.3701229312698318" gradientTransform="matrix(40.178,0,0,40.148,562.858,1113.336)" gradientUnits="userSpaceOnUse"><stop offset="64.583939003472%" stop-opacity="1" style="stop-color:rgb(153,0,0)"/><stop offset="64.583939003472%" stop-opacity="1" style="stop-color:rgb(153,0,0)"/><stop offset="83.778089003472%" stop-opacity="1" style="stop-color:rgb(228,43,30)"/><stop offset="100%" stop-opacity="1" style="stop-color:rgb(255,205,149)"/><stop offset="100%" stop-opacity="1" style="stop-color:rgb(251,118,85)"/></linearGradient><path d=" M 591.669 1136.376 L 562.858 1153.484 L 600.163 1150.952 L 603.036 1113.336 L 591.669 1136.376 L 591.669 1136.376 Z " fill="url(#_lgradient_2)"/><linearGradient id="_lgradient_3" x1="0" y1="0.5" x2="0.8303655084481997" y2="1.057219097285406" gradientTransform="matrix(11.94,0,0,22.13,588.284,1128.797)" gradientUnits="userSpaceOnUse"><stop offset="0%" stop-opacity="1" style="stop-color:rgb(144,18,8)"/><stop offset="100%" stop-opacity="1" style="stop-color:rgb(136,17,2)"/><stop offset="100%" stop-opacity="1" style="stop-color:rgb(135,17,1)"/></linearGradient><path d=" M 600.224 1150.927 L 597.018 1128.797 L 588.284 1140.329 L 600.224 1150.927 L 600.224 1150.927 Z " fill="url(#_lgradient_3)"/><linearGradient id="_lgradient_4" x1="0" y1="0.5" x2="0.8303662554358254" y2="1.057217984126038" gradientTransform="matrix(37.285,0,0,4.353,562.983,1149.083)" gradientUnits="userSpaceOnUse"><stop offset="0%" stop-opacity="1" style="stop-color:rgb(145,18,9)"/><stop offset="100%" stop-opacity="1" style="stop-color:rgb(140,18,5)"/><stop offset="100%" stop-opacity="1" style="stop-color:rgb(135,17,1)"/></linearGradient><path d=" M 600.267 1150.927 L 576.777 1149.083 L 562.983 1153.436 L 600.267 1150.927 L 600.267 1150.927 Z " fill="url(#_lgradient_4)"/><linearGradient id="_lgradient_5" x1="0" y1="0.5" x2="0.15208680421777962" y2="1.4883671402787644" gradientTransform="matrix(12.913,0,0,19.224,555.971,1134.216)" gradientUnits="userSpaceOnUse"><stop offset="8.224406171904999%" stop-opacity="1" style="stop-color:rgb(255,255,255)"/><stop offset="8.224406171904999%" stop-opacity="1" style="stop-color:rgb(255,255,255)"/><stop offset="24.761636171904993%" stop-opacity="1" style="stop-color:rgb(229,114,82)"/><stop offset="41.29886617190499%" stop-opacity="1" style="stop-color:rgb(222,59,32)"/><stop offset="79.40639617190497%" stop-opacity="1" style="stop-color:rgb(166,0,3)"/><stop offset="80.12540617190497%" stop-opacity="1" style="stop-color:rgb(166,0,3)"/></linearGradient><path d=" M 563.016 1153.441 L 568.884 1134.216 L 555.971 1136.977 L 563.016 1153.441 L 563.016 1153.441 Z " fill="url(#_lgradient_5)"/><linearGradient id="_lgradient_6" x1="0" y1="0.5" x2="0.055462869356809906" y2="1.498460750416715" gradientTransform="matrix(20.852,0,0,21.15,567.43,1119.243)" gradientUnits="userSpaceOnUse"><stop offset="16.242630553322883%" stop-opacity="1" style="stop-color:rgb(255,255,255)"/><stop offset="16.242630553322883%" stop-opacity="1" style="stop-color:rgb(255,255,255)"/><stop offset="31.583400553322882%" stop-opacity="1" style="stop-color:rgb(228,113,78)"/><stop offset="53.59407055332288%" stop-opacity="1" style="stop-color:rgb(190,26,13)"/><stop offset="82.27464055332285%" stop-opacity="1" style="stop-color:rgb(168,13,0)"/><stop offset="82.94163055332287%" stop-opacity="1" style="stop-color:rgb(168,13,0)"/></linearGradient><path d=" M 588.282 1140.393 L 582.882 1119.243 L 567.43 1133.728 L 588.282 1140.393 L 588.282 1140.393 Z " fill="url(#_lgradient_6)"/><linearGradient id="_lgradient_7" x1="0" y1="0.5" x2="0.22604309740192263" y2="1.4741173020314058" gradientTransform="matrix(18.674,0,0,13.15,583.137,1107.611)" gradientUnits="userSpaceOnUse"><stop offset="13.275972662501436%" stop-opacity="1" style="stop-color:rgb(255,255,255)"/><stop offset="13.275972662501436%" stop-opacity="1" style="stop-color:rgb(255,255,255)"/><stop offset="27.11509266250144%" stop-opacity="1" style="stop-color:rgb(228,99,66)"/><stop offset="44.02957266250144%" stop-opacity="1" style="stop-color:rgb(200,36,16)"/><stop offset="89.39113266250143%" stop-opacity="1" style="stop-color:rgb(168,13,0)"/><stop offset="90.15997266250145%" stop-opacity="1" style="stop-color:rgb(168,13,0)"/></linearGradient><path d=" M 601.811 1119.541 L 587.204 1107.611 L 583.137 1120.761 L 601.811 1119.541 L 601.811 1119.541 Z " fill="url(#_lgradient_7)"/><linearGradient id="_lgradient_8" x1="0" y1="0.5" x2="0.8944244219451598" y2="0.05278086643339286" gradientTransform="matrix(14.011,0,0,4.811,580.969,1103.294)" gradientUnits="userSpaceOnUse"><stop offset="5.940637839307113%" stop-opacity="1" style="stop-color:rgb(255,255,255)"/><stop offset="5.940637839307113%" stop-opacity="1" style="stop-color:rgb(255,255,255)"/><stop offset="62.67465783930714%" stop-opacity="1" style="stop-color:rgb(200,31,17)"/><stop offset="100%" stop-opacity="1" style="stop-color:rgb(191,10,5)"/><stop offset="100%" stop-opacity="1" style="stop-color:rgb(191,9,5)"/></linearGradient><path d=" M 594.98 1103.357 L 586.389 1108.105 L 580.969 1103.294 L 594.98 1103.358 L 594.98 1103.357 Z " fill="url(#_lgradient_8)"/><linearGradient id="_lgradient_9" x1="0" y1="0.5" x2="0.0993874224255489" y2="1.4950488130054753" gradientTransform="matrix(3.599,0,0,14.383,552.573,1129.043)" gradientUnits="userSpaceOnUse"><stop offset="20.866424137713178%" stop-opacity="1" style="stop-color:rgb(255,255,255)"/><stop offset="20.866424137713178%" stop-opacity="1" style="stop-color:rgb(255,255,255)"/><stop offset="38.821934137713164%" stop-opacity="1" style="stop-color:rgb(222,64,36)"/><stop offset="78.20821413771316%" stop-opacity="1" style="stop-color:rgb(191,25,11)"/><stop offset="78.78742413771315%" stop-opacity="1" style="stop-color:rgb(191,25,11)"/></linearGradient><path d=" M 552.573 1143.426 L 556.172 1136.863 L 553.261 1129.043 L 552.573 1143.426 Z " fill="url(#_lgradient_9)"/><path d=" M 553.068 1128.797 L 555.997 1137.105 L 568.724 1134.249 L 583.254 1120.745 L 587.355 1107.72 L 580.898 1103.161 L 569.921 1107.27 C 566.462 1110.486 559.751 1116.851 559.509 1116.971 C 559.269 1117.093 555.077 1125.017 553.068 1128.797 Z " fill="rgb(255,255,255)"/><linearGradient id="_lgradient_10" x1="0" y1="0.5" x2="0.6971821049174877" y2="-0.21689407347447165" gradientTransform="matrix(31.314,0,0,31.269,554.319,1104.429)" gradientUnits="userSpaceOnUse"><stop offset="0%" stop-opacity="1" style="stop-color:rgb(255,254,254)"/><stop offset="12.209887277563755%" stop-opacity="1" style="stop-color:rgb(200,47,28)"/><stop offset="19.92732727756375%" stop-opacity="1" style="stop-color:rgb(130,12,1)"/><stop offset="36.648447277563754%" stop-opacity="1" style="stop-color:rgb(163,22,1)"/><stop offset="70.09068727756376%" stop-opacity="1" style="stop-color:rgb(179,19,1)"/><stop offset="100%" stop-opacity="1" style="stop-color:rgb(221,34,7)"/><stop offset="100%" stop-opacity="1" style="stop-color:rgb(232,38,9)"/></linearGradient><path d=" M 563.352 1113.871 C 570.848 1106.439 580.511 1102.048 584.219 1105.79 C 587.926 1109.531 583.995 1118.624 576.499 1126.053 C 569.004 1133.483 559.46 1138.116 555.755 1134.374 C 552.046 1130.635 555.856 1121.301 563.352 1113.871 L 563.352 1113.871 Z " fill="url(#_lgradient_10)"/><linearGradient id="_lgradient_11" x1="0" y1="0.5" x2="0.9708678210552955" y2="0.7396156798695419" gradientTransform="matrix(25.159,0,0,19.286,563.016,1134.147)" gradientUnits="userSpaceOnUse"><stop offset="14.170688646045985%" stop-opacity="1" style="stop-color:rgb(168,13,14)"/><stop offset="14.170688646045985%" stop-opacity="1" style="stop-color:rgb(168,13,14)"/><stop offset="39.45780864604599%" stop-opacity="1" style="stop-color:rgb(153,12,0)"/><stop offset="60.530408646045984%" stop-opacity="1" style="stop-color:rgb(140,12,1)"/><stop offset="60.998688646045984%" stop-opacity="1" style="stop-color:rgb(140,12,1)"/></linearGradient><path d=" M 563.016 1153.433 L 568.838 1134.147 L 588.175 1140.359 C 581.183 1146.915 573.407 1152.458 563.016 1153.433 L 563.016 1153.433 Z " fill="url(#_lgradient_11)"/><linearGradient id="_lgradient_12" x1="0" y1="0.5" x2="0.7446735002736149" y2="1.167428931040783" gradientTransform="matrix(18.613,0,0,20.908,583.279,1119.462)" gradientUnits="userSpaceOnUse"><stop offset="17.148090540992293%" stop-opacity="1" style="stop-color:rgb(158,12,0)"/><stop offset="17.148090540992293%" stop-opacity="1" style="stop-color:rgb(158,12,0)"/><stop offset="72.81678054099228%" stop-opacity="1" style="stop-color:rgb(126,17,11)"/><stop offset="73.37909054099228%" stop-opacity="1" style="stop-color:rgb(126,17,11)"/></linearGradient><path d=" M 583.279 1120.707 L 588.244 1140.37 C 594.084 1134.229 599.325 1127.627 601.892 1119.462 L 583.28 1120.707 L 583.279 1120.707 Z " fill="url(#_lgradient_12)"/><linearGradient id="_lgradient_13" x1="0" y1="0.5" x2="0.6831320044549841" y2="1.230294916105347" gradientTransform="matrix(15.78,0,0,16.193,587.232,1103.368)" gradientUnits="userSpaceOnUse"><stop offset="49.2930044114644%" stop-opacity="1" style="stop-color:rgb(158,18,11)"/><stop offset="49.2930044114644%" stop-opacity="1" style="stop-color:rgb(158,18,11)"/><stop offset="83.36682441146439%" stop-opacity="1" style="stop-color:rgb(121,19,13)"/><stop offset="83.7110044114644%" stop-opacity="1" style="stop-color:rgb(121,19,13)"/></linearGradient><path d=" M 601.842 1119.561 C 603.828 1113.566 604.287 1104.965 594.919 1103.368 L 587.232 1107.613 L 601.842 1119.561 L 601.842 1119.561 Z " fill="url(#_lgradient_13)"/><path d=" M 552.573 1143.34 C 552.849 1153.235 559.988 1153.382 563.029 1153.469 L 556.004 1137.064 L 552.573 1143.34 Z " fill="rgb(158,18,9)"/><radialGradient id="_rgradient_0" fx="0.32000999999999996" fy="0.4021" cx="0.32000999999999996" cy="0.4021" r="0.69573" gradientTransform="matrix(18.435,0,0,9.633,583.307,1119.508)" gradientUnits="userSpaceOnUse"><stop offset="0%" stop-opacity="1" style="stop-color:rgb(168,13,0)"/><stop offset="0%" stop-opacity="1" style="stop-color:rgb(168,13,0)"/><stop offset="99%" stop-opacity="1" style="stop-color:rgb(126,14,8)"/><stop offset="100%" stop-opacity="1" style="stop-color:rgb(126,14,8)"/></radialGradient><path d=" M 583.307 1120.738 C 587.795 1123.496 596.839 1129.036 597.023 1129.138 C 597.308 1129.298 600.922 1123.043 601.742 1119.508 L 583.307 1120.738 L 583.307 1120.738 Z " fill="url(#_rgradient_0)"/><radialGradient id="_rgradient_1" fx="0.13549" fy="0.4086" cx="0.13549" cy="0.4086" r="0.88386" gradientTransform="matrix(19.291,0,0,15.017,568.831,1134.147)" gradientUnits="userSpaceOnUse"><stop offset="0%" stop-opacity="1" style="stop-color:rgb(163,12,0)"/><stop offset="0%" stop-opacity="1" style="stop-color:rgb(163,12,0)"/><stop offset="99%" stop-opacity="1" style="stop-color:rgb(128,14,8)"/><stop offset="100%" stop-opacity="1" style="stop-color:rgb(128,14,8)"/></radialGradient><path d=" M 568.831 1134.147 L 576.614 1149.164 C 581.216 1146.668 584.821 1143.627 588.121 1140.37 L 568.831 1134.147 Z " fill="url(#_rgradient_1)"/><linearGradient id="_lgradient_14" x1="0" y1="0.5" x2="0.2827178518217102" y2="1.459203115227071" gradientTransform="matrix(7.946,0,0,16.065,554.871,1137.081)" gradientUnits="userSpaceOnUse"><stop offset="8.74056592361173%" stop-opacity="1" style="stop-color:rgb(179,16,12)"/><stop offset="8.74056592361173%" stop-opacity="1" style="stop-color:rgb(179,16,12)"/><stop offset="47.32188592361173%" stop-opacity="1" style="stop-color:rgb(158,16,10)"/><stop offset="97.56732592361173%" stop-opacity="1" style="stop-color:rgb(139,33,20)"/><stop offset="98.46456592361173%" stop-opacity="1" style="stop-color:rgb(139,33,20)"/></linearGradient><path d=" M 555.974 1137.084 L 554.871 1150.216 C 556.952 1153.059 559.815 1153.306 562.817 1153.084 C 560.645 1147.677 556.305 1136.865 555.974 1137.084 Z " fill="url(#_lgradient_14)"/><linearGradient id="_lgradient_15" x1="0" y1="0.5" x2="0.9148421281337943" y2="0.9038116895183079" gradientTransform="matrix(15.463,0,0,6.459,587.186,1103.358)" gradientUnits="userSpaceOnUse"><stop offset="30.733010808380822%" stop-opacity="1" style="stop-color:rgb(179,16,0)"/><stop offset="30.733010808380822%" stop-opacity="1" style="stop-color:rgb(179,16,0)"/><stop offset="59.37481080838081%" stop-opacity="1" style="stop-color:rgb(145,15,8)"/><stop offset="95.1770608083808%" stop-opacity="1" style="stop-color:rgb(121,28,18)"/><stop offset="95.82801080838081%" stop-opacity="1" style="stop-color:rgb(121,28,18)"/></linearGradient><path d=" M 587.186 1107.647 L 602.649 1109.816 C 601.824 1106.32 599.29 1104.063 594.97 1103.358 L 587.186 1107.647 L 587.186 1107.647 Z " fill="url(#_lgradient_15)"/></g></g><g style="isolation:isolate"><defs><filter id="fluMS6VpJQiqDC3zuvpO5SGVMgKQhmvE" x="261.482" y="1162" width="96.645" height="96.645" filterUnits="userSpaceOnUse"><feGaussianBlur xmlns="http://www.w3.org/2000/svg" in="SourceGraphic" stdDeviation="2.146804531419514"/><feOffset xmlns="http://www.w3.org/2000/svg" dx="0" dy="0" result="pf_100_offsetBlur"/><feFlood xmlns="http://www.w3.org/2000/svg" flood-color="#2BA977" flood-opacity="1"/><feComposite xmlns="http://www.w3.org/2000/svg" in2="pf_100_offsetBlur" operator="in" result="pf_100_dropShadow"/><feBlend xmlns="http://www.w3.org/2000/svg" in="SourceGraphic" in2="pf_100_dropShadow" mode="normal"/></filter></defs><g filter="url(#fluMS6VpJQiqDC3zuvpO5SGVMgKQhmvE)"><circle vector-effect="non-scaling-stroke" cx="309.80474216468974" cy="1210.3227276484524" r="40.32272764845277" fill="rgb(255,255,255)" stroke-width="2" stroke="rgb(43,169,119)" stroke-linejoin="miter" stroke-linecap="square" stroke-miterlimit="3"/></g><g><path d=" M 302.797 1184.821 L 311.148 1184.821 L 311.148 1223.097 C 306.87 1223.906 303.721 1224.225 300.314 1224.225 C 290.114 1224.214 284.805 1219.657 284.805 1210.906 C 284.805 1202.473 290.437 1197.001 299.164 1197.001 C 300.518 1197.001 301.55 1197.107 302.797 1197.427 L 302.797 1184.821 Z  M 303.09 1204.324 C 302.111 1204.005 301.305 1203.899 300.274 1203.899 C 296.05 1203.899 293.61 1206.475 293.61 1210.99 C 293.61 1215.386 295.942 1217.814 300.22 1217.814 C 301.144 1217.814 301.897 1217.762 303.09 1217.602 L 303.09 1204.324 L 303.09 1204.324 Z " fill="rgb(43,169,119)"/><path d=" M 324.805 1198.028 L 324.805 1217.193 C 324.805 1223.793 324.31 1226.967 322.859 1229.703 C 321.505 1232.334 319.721 1233.992 316.034 1235.825 L 308.285 1232.173 C 311.972 1230.46 313.756 1228.946 314.895 1226.635 C 316.088 1224.273 316.464 1221.537 316.464 1214.339 L 316.464 1198.029 L 324.805 1198.029 L 324.805 1198.028 Z  M 315.623 1184.821 L 323.974 1184.821 L 323.974 1193.306 L 315.623 1193.306 L 315.623 1184.821 Z " fill="rgb(43,169,119)"/></g></g><g style="isolation:isolate"><defs><filter id="pDZTxkAkfnbCTsYQD6xtGf3pA4HEiHG3" x="461.482" y="1162" width="96.645" height="96.645" filterUnits="userSpaceOnUse"><feGaussianBlur xmlns="http://www.w3.org/2000/svg" in="SourceGraphic" stdDeviation="2.146804531419514"/><feOffset xmlns="http://www.w3.org/2000/svg" dx="0" dy="0" result="pf_100_offsetBlur"/><feFlood xmlns="http://www.w3.org/2000/svg" flood-color="#53C1DE" flood-opacity="1"/><feComposite xmlns="http://www.w3.org/2000/svg" in2="pf_100_offsetBlur" operator="in" result="pf_100_dropShadow"/><feBlend xmlns="http://www.w3.org/2000/svg" in="SourceGraphic" in2="pf_100_dropShadow" mode="normal"/></filter></defs><g filter="url(#pDZTxkAkfnbCTsYQD6xtGf3pA4HEiHG3)"><circle vector-effect="non-scaling-stroke" cx="509.8047421646901" cy="1210.3227276484524" r="40.32272764845274" fill="rgb(255,255,255)" stroke-width="2" stroke="rgb(83,193,222)" stroke-linejoin="miter" stroke-linecap="square" stroke-miterlimit="3"/></g><g><path d=" M 476.437 1209.892 C 476.437 1214.932 481.359 1219.637 489.117 1222.289 C 487.568 1230.089 488.84 1236.375 493.087 1238.825 C 497.453 1241.343 503.957 1239.6 510.131 1234.203 C 516.149 1239.382 522.231 1241.42 526.474 1238.963 C 530.836 1236.438 532.163 1229.725 530.571 1221.682 C 538.652 1219.01 543.172 1214.998 543.172 1209.892 C 543.172 1204.969 538.242 1200.71 530.588 1198.075 C 532.302 1189.7 530.849 1183.565 526.426 1181.015 C 522.161 1178.555 516.009 1180.699 509.903 1186.013 C 503.55 1180.373 497.458 1178.651 493.039 1181.208 C 488.779 1183.675 487.563 1190.076 489.117 1198.02 C 481.62 1200.634 476.437 1204.989 476.437 1209.892 Z " fill="rgb(255,255,255)"/><path d=" M 528.967 1200.692 C 528.336 1200.476 527.7 1200.275 527.059 1200.091 C 527.165 1199.659 527.263 1199.225 527.354 1198.79 C 528.798 1191.779 527.854 1186.131 524.629 1184.272 C 521.537 1182.489 516.481 1184.348 511.374 1188.792 C 510.871 1189.231 510.379 1189.683 509.898 1190.147 C 509.577 1189.838 509.249 1189.536 508.916 1189.24 C 503.564 1184.487 498.2 1182.485 494.978 1184.35 C 491.89 1186.138 490.975 1191.447 492.275 1198.091 C 492.404 1198.749 492.55 1199.404 492.713 1200.054 C 491.954 1200.27 491.221 1200.499 490.52 1200.744 C 484.245 1202.931 480.238 1206.36 480.238 1209.916 C 480.238 1213.589 484.539 1217.274 491.075 1219.507 C 491.605 1219.688 492.139 1219.855 492.678 1220.008 C 492.503 1220.709 492.348 1221.415 492.212 1222.124 C 490.972 1228.653 491.941 1233.836 495.021 1235.613 C 498.203 1237.448 503.543 1235.562 508.744 1231.017 C 509.155 1230.657 509.567 1230.276 509.98 1229.877 C 510.501 1230.379 511.035 1230.866 511.582 1231.338 C 516.619 1235.673 521.594 1237.423 524.672 1235.641 C 527.851 1233.801 528.884 1228.232 527.542 1221.457 C 527.44 1220.94 527.321 1220.411 527.187 1219.873 C 527.562 1219.762 527.93 1219.648 528.289 1219.529 C 535.084 1217.278 539.504 1213.638 539.504 1209.916 C 539.504 1206.347 535.368 1202.896 528.967 1200.692 L 528.967 1200.692 Z " fill="rgb(83,193,222)"/><path d=" M 527.493 1217.126 C 527.169 1217.233 526.836 1217.337 526.497 1217.437 C 525.747 1215.062 524.735 1212.537 523.496 1209.929 C 524.678 1207.382 525.652 1204.889 526.381 1202.53 C 526.987 1202.706 527.576 1202.891 528.143 1203.086 C 533.627 1204.974 536.972 1207.765 536.972 1209.916 C 536.972 1212.207 533.359 1215.182 527.493 1217.126 L 527.493 1217.126 Z  M 525.059 1221.949 C 525.652 1224.945 525.737 1227.653 525.344 1229.771 C 524.991 1231.674 524.281 1232.942 523.403 1233.45 C 521.535 1234.531 517.541 1233.126 513.234 1229.419 C 512.74 1228.994 512.242 1228.541 511.743 1228.061 C 513.413 1226.234 515.082 1224.11 516.711 1221.752 C 519.576 1221.498 522.283 1221.083 524.738 1220.515 C 524.859 1221.003 524.966 1221.481 525.059 1221.949 L 525.059 1221.949 Z  M 500.443 1233.263 C 498.618 1233.908 497.165 1233.926 496.286 1233.42 C 494.417 1232.342 493.64 1228.179 494.7 1222.596 C 494.826 1221.936 494.97 1221.28 495.132 1220.629 C 497.56 1221.165 500.247 1221.552 503.119 1221.785 C 504.759 1224.092 506.476 1226.213 508.207 1228.07 C 507.839 1228.426 507.462 1228.773 507.077 1229.11 C 504.778 1231.12 502.474 1232.546 500.443 1233.263 L 500.443 1233.263 Z  M 491.894 1217.111 C 489.004 1216.124 486.617 1214.84 484.981 1213.439 C 483.512 1212.18 482.769 1210.931 482.769 1209.916 C 482.769 1207.758 485.987 1205.006 491.353 1203.135 C 492.027 1202.901 492.707 1202.687 493.393 1202.493 C 494.135 1204.905 495.108 1207.427 496.282 1209.978 C 495.092 1212.566 494.106 1215.129 493.357 1217.569 C 492.866 1217.429 492.378 1217.276 491.894 1217.111 L 491.894 1217.111 Z  M 494.76 1197.605 C 493.646 1191.912 494.385 1187.618 496.247 1186.541 C 498.23 1185.393 502.614 1187.03 507.235 1191.133 C 507.53 1191.395 507.827 1191.67 508.124 1191.954 C 506.403 1193.803 504.701 1195.908 503.076 1198.202 C 500.288 1198.46 497.62 1198.875 495.167 1199.431 C 495.016 1198.825 494.88 1198.217 494.76 1197.605 L 494.76 1197.605 Z  M 520.324 1203.917 C 519.745 1202.917 519.144 1201.928 518.522 1200.954 C 520.413 1201.192 522.225 1201.51 523.926 1201.898 C 523.416 1203.535 522.779 1205.247 522.029 1207.001 C 521.482 1205.962 520.913 1204.934 520.324 1203.917 L 520.324 1203.917 Z  M 509.899 1193.763 C 511.067 1195.028 512.236 1196.441 513.387 1197.973 C 511.053 1197.863 508.716 1197.863 506.382 1197.972 C 507.534 1196.453 508.713 1195.043 509.899 1193.763 Z  M 499.407 1203.935 C 498.826 1204.943 498.268 1205.965 497.734 1207 C 496.997 1205.251 496.366 1203.532 495.851 1201.871 C 497.542 1201.493 499.345 1201.184 501.224 1200.949 C 500.595 1201.93 499.989 1202.925 499.407 1203.935 L 499.407 1203.935 Z  M 501.278 1219.064 C 499.337 1218.848 497.506 1218.554 495.816 1218.186 C 496.339 1216.497 496.984 1214.74 497.737 1212.954 C 498.273 1213.989 498.833 1215.012 499.417 1216.021 C 500.013 1217.05 500.634 1218.065 501.278 1219.064 L 501.278 1219.064 Z  M 509.969 1226.248 C 508.769 1224.953 507.572 1223.521 506.403 1221.981 C 507.538 1222.025 508.695 1222.048 509.871 1222.048 C 511.079 1222.048 512.273 1222.021 513.448 1221.969 C 512.294 1223.537 511.129 1224.971 509.969 1226.248 Z  M 522.053 1212.863 C 522.846 1214.669 523.513 1216.416 524.044 1218.077 C 522.325 1218.469 520.47 1218.785 518.515 1219.019 C 519.142 1218.026 519.748 1217.021 520.335 1216.003 C 520.931 1214.969 521.504 1213.922 522.053 1212.863 L 522.053 1212.863 Z  M 518.141 1214.739 C 517.244 1216.298 516.295 1217.828 515.298 1219.326 C 513.54 1219.452 511.723 1219.516 509.871 1219.516 C 508.027 1219.516 506.233 1219.459 504.505 1219.347 C 503.482 1217.853 502.516 1216.32 501.608 1214.752 C 500.705 1213.193 499.862 1211.6 499.08 1209.977 C 499.86 1208.353 500.701 1206.76 501.601 1205.199 L 501.601 1205.2 C 502.5 1203.639 503.459 1202.113 504.474 1200.625 C 506.237 1200.492 508.044 1200.422 509.871 1200.422 C 511.706 1200.422 513.516 1200.492 515.278 1200.626 C 516.283 1202.112 517.235 1203.633 518.133 1205.186 C 519.036 1206.743 519.888 1208.329 520.688 1209.941 C 519.897 1211.57 519.047 1213.17 518.142 1214.739 L 518.141 1214.739 Z  M 523.364 1186.466 C 525.349 1187.61 526.121 1192.226 524.874 1198.279 C 524.792 1198.673 524.703 1199.066 524.607 1199.457 C 522.149 1198.89 519.479 1198.467 516.683 1198.205 C 515.055 1195.886 513.367 1193.777 511.673 1191.952 C 512.117 1191.525 512.572 1191.108 513.036 1190.702 C 517.412 1186.894 521.501 1185.391 523.364 1186.466 L 523.364 1186.466 Z " fill="rgb(255,255,255)"/><path d=" M 509.871 1204.624 C 512.794 1204.624 515.163 1206.994 515.163 1209.916 C 515.163 1212.839 512.794 1215.209 509.871 1215.209 C 506.948 1215.209 504.579 1212.839 504.579 1209.916 C 504.579 1206.994 506.948 1204.624 509.871 1204.624" fill="rgb(83,193,222)"/></g></g><g style="isolation:isolate"><defs><filter id="zBvRk701CmyjFBOB1JQ1X9mmxkeV9a8Q" x="361.482" y="1192" width="96.645" height="96.645" filterUnits="userSpaceOnUse"><feGaussianBlur xmlns="http://www.w3.org/2000/svg" in="SourceGraphic" stdDeviation="2.146804531419514"/><feOffset xmlns="http://www.w3.org/2000/svg" dx="0" dy="0" result="pf_100_offsetBlur"/><feFlood xmlns="http://www.w3.org/2000/svg" flood-color="#D1D1D1" flood-opacity="1"/><feComposite xmlns="http://www.w3.org/2000/svg" in2="pf_100_offsetBlur" operator="in" result="pf_100_dropShadow"/><feBlend xmlns="http://www.w3.org/2000/svg" in="SourceGraphic" in2="pf_100_dropShadow" mode="normal"/></filter></defs><g filter="url(#zBvRk701CmyjFBOB1JQ1X9mmxkeV9a8Q)"><circle vector-effect="non-scaling-stroke" cx="409.8047421646897" cy="1240.3227276484527" r="40.32272764845271" fill="rgb(255,255,255)" stroke-width="2" stroke="rgb(209,209,209)" stroke-linejoin="miter" stroke-linecap="square" stroke-miterlimit="3"/></g><g transform="matrix(1,0,0,1,395.305,1206.594)"><text transform="matrix(1,0,0,1,0.475,36.967)" style="font-family:&quot;Oxygen&quot;;font-weight:400;font-size:36px;font-style:normal;fill:#747474;stroke:none;">...</text></g></g><g style="isolation:isolate"><defs><filter id="5Kbqmo598Noo5lKPrd3EP3XxfU2lzonT" x="320.932" y="761.355" width="177.745" height="177.745" filterUnits="userSpaceOnUse"><feGaussianBlur xmlns="http://www.w3.org/2000/svg" in="SourceGraphic" stdDeviation="2.146804531419514"/><feOffset xmlns="http://www.w3.org/2000/svg" dx="0" dy="0" result="pf_100_offsetBlur"/><feFlood xmlns="http://www.w3.org/2000/svg" flood-color="#E24B31" flood-opacity="1"/><feComposite xmlns="http://www.w3.org/2000/svg" in2="pf_100_offsetBlur" operator="in" result="pf_100_dropShadow"/><feBlend xmlns="http://www.w3.org/2000/svg" in="SourceGraphic" in2="pf_100_dropShadow" mode="normal"/></filter></defs><g filter="url(#5Kbqmo598Noo5lKPrd3EP3XxfU2lzonT)"><circle vector-effect="non-scaling-stroke" cx="409.8047421646896" cy="850.227074889952" r="80.87253018685749" fill="rgb(255,255,255)" stroke-width="2" stroke="rgb(226,75,49)" stroke-linejoin="miter" stroke-linecap="square" stroke-miterlimit="3"/></g><g><path d=" M 474.118 852.805 C 473.805 849.733 471.575 848.364 469.481 848.364 C 468.523 848.364 467.76 848.638 467.467 848.755 L 467.056 848.931 L 466.704 849.186 C 466.214 849.557 465.354 850.066 464.591 850.34 C 464.552 849.714 464.571 848.912 464.669 848.247 L 464.689 848.129 C 465.256 842.73 464.121 839.58 461.324 838.778 C 460.854 838.641 460.365 838.583 459.876 838.583 C 458.174 838.583 456.668 839.404 455.69 840.108 C 454.868 839.072 453.499 838.485 451.777 838.485 C 449.215 838.485 447.161 839.678 446.417 841.595 C 446.339 841.791 446.241 842.084 446.124 842.476 C 444.617 839.15 441.546 837.878 438.69 837.878 C 435.99 837.878 433.369 838.935 432.391 839.678 C 432.352 839.717 432.293 839.737 432.234 839.795 C 429.672 841.615 427.676 843.904 426.268 846.662 C 425.583 844.275 424.077 842.045 421.377 840.363 L 421.338 840.324 C 421.26 840.285 421.201 840.246 421.123 840.206 C 423.764 835.511 426.111 829.29 424.703 823.363 C 423.216 817.044 419.499 816.105 417.406 816.105 C 416.545 816.105 415.665 816.262 414.765 816.575 L 414.706 816.594 L 414.648 816.614 C 410.716 818.159 408.994 820.487 408.622 821.035 C 408.231 821.622 403.927 828.156 402.891 837.722 C 402.773 838.778 402.656 839.874 402.538 840.969 C 401.932 840.108 400.934 839.326 399.35 838.837 C 398.861 838.681 398.352 838.622 397.843 838.622 C 395.672 838.622 393.911 839.952 392.972 840.832 L 392.953 840.813 C 392.131 839.6 390.82 838.876 389.373 838.818 L 389.021 838.818 C 386.712 838.818 384.873 839.835 383.524 840.989 C 382.663 839.482 381.078 838.544 379.22 838.544 C 379.063 838.544 378.926 838.544 378.789 838.563 L 378.476 838.563 C 375.914 838.563 373.899 839.776 373.077 841.791 C 373.019 841.948 372.94 842.143 372.862 842.397 C 370.847 839.893 368.284 838.72 364.841 838.72 L 364.509 838.72 C 362.357 838.759 356.997 839.659 353.71 847.053 C 353.202 848.188 352.81 849.342 352.517 850.477 C 351.928 850.205 351.287 850.065 350.639 850.066 C 348.917 850.066 347.626 851.044 347 851.964 C 346.492 852.707 344.868 855.348 345.67 857.93 C 346.101 859.319 347.098 860.375 348.507 860.923 C 349.739 861.412 351.304 861.882 352.478 862.214 C 353.202 863.857 354.493 865.755 356.782 867.496 C 358.405 868.729 360.479 869.355 362.924 869.355 C 367.032 869.355 371.003 867.574 371.434 867.379 L 371.59 867.301 L 371.629 867.261 C 372.412 868.083 373.449 868.67 374.759 868.924 C 375.151 869.002 375.659 869.061 376.246 869.061 C 378.476 869.061 380.022 867.926 381.45 865.794 C 382.624 867.633 384.756 868.67 387.28 868.67 L 387.299 868.67 C 387.436 868.67 387.573 868.768 387.73 868.768 C 389.06 868.768 390.723 868.298 392.112 866.068 C 393.266 868.142 395.378 869.335 397.883 869.335 C 400.113 869.335 402.049 868.416 402.401 868.24 L 402.48 868.2 C 403.223 867.809 403.849 867.457 404.338 867.183 C 406.001 868.063 408.524 869.042 411.615 869.042 C 412.144 869.042 412.672 869.022 413.2 868.964 L 413.337 868.944 L 413.474 868.924 C 420.027 867.633 424.292 866.068 426.835 864.875 C 428.615 866.87 431.452 868.787 435.501 869.081 C 435.951 869.12 436.421 869.139 436.871 869.139 C 440.196 869.139 442.857 868.2 444.813 867.163 C 445.439 867.829 446.222 868.435 447.239 868.846 C 447.845 869.1 448.471 869.218 449.117 869.218 C 453.186 869.218 455.083 864.366 455.612 862.723 L 456.59 860.102 C 457.451 861.021 458.546 861.764 459.935 862.156 C 460.698 862.371 461.52 862.488 462.361 862.488 C 466.841 862.488 471.144 859.319 471.829 858.791 C 473.061 857.774 474.411 855.68 474.118 852.805" fill="rgb(255,255,255)"/><path d=" M 433.077 854.13 C 433.077 854.13 432.51 852.135 434.623 848.281 C 436.716 844.447 438.359 846.54 438.359 846.54 C 438.359 846.54 440.159 848.496 438.105 851.411 C 436.051 854.346 433.077 854.13 433.077 854.13 M 416.938 856.908 C 414.532 863.207 408.683 860.645 408.683 860.645 C 408.683 860.645 408.018 858.395 409.915 852.076 C 411.813 845.777 416.273 848.242 416.273 848.242 C 416.273 848.242 419.344 850.609 416.938 856.908 Z  M 412.576 830.518 C 412.576 830.518 416.214 821.03 417.095 825.647 C 417.975 830.264 409.466 843.997 409.466 843.997 C 409.544 840.906 412.576 830.518 412.576 830.518 M 360.54 854.13 C 360.696 848.027 364.687 845.366 366.076 846.696 C 367.465 848.027 366.956 850.902 364.335 852.702 C 361.733 854.502 360.54 854.13 360.54 854.13 M 470.794 853.132 C 470.598 851.078 468.74 851.841 468.74 851.841 C 468.74 851.841 465.766 854.15 463.145 853.895 C 460.543 853.621 461.365 847.792 461.365 847.792 C 461.365 847.792 461.932 842.432 460.387 841.982 C 458.841 841.532 456.944 843.371 456.944 843.371 C 456.944 843.371 454.577 845.992 453.461 849.318 L 453.149 849.415 C 453.149 849.415 453.501 843.566 453.09 842.236 C 452.777 841.571 449.96 841.63 449.51 842.803 C 449.04 843.977 446.791 852.174 446.634 855.617 C 446.634 855.617 442.233 859.353 438.379 859.979 C 434.525 860.586 433.606 858.18 433.606 858.18 C 433.606 858.18 444.072 855.265 443.7 846.911 C 443.348 838.558 435.268 841.649 434.349 842.334 C 433.469 842.999 428.754 845.835 427.365 853.719 C 427.326 853.993 427.228 855.167 427.228 855.167 C 427.228 855.167 423.179 857.886 420.929 858.61 C 420.929 858.61 427.228 848.007 419.54 843.175 C 416.058 841.082 413.28 845.483 413.28 845.483 C 413.28 845.483 423.687 833.902 421.379 824.101 C 420.284 819.446 417.956 818.937 415.804 819.7 C 412.556 820.991 411.324 822.869 411.324 822.869 C 411.324 822.869 407.118 828.972 406.14 838.05 C 405.162 847.127 403.734 858.082 403.734 858.082 C 403.734 858.082 401.738 860.038 399.899 860.136 C 398.06 860.234 398.882 854.658 398.882 854.658 C 398.882 854.658 400.31 846.148 400.212 844.721 C 400.115 843.292 400.017 842.51 398.315 842.001 C 396.632 841.493 394.774 843.645 394.774 843.645 C 394.774 843.645 389.903 851.02 389.492 852.154 L 389.238 852.624 L 388.983 852.311 C 388.983 852.311 392.426 842.255 389.14 842.119 C 385.853 841.962 383.702 845.698 383.702 845.698 C 383.702 845.698 379.965 851.959 379.809 852.663 L 379.554 852.35 C 379.554 852.35 381.1 845.073 380.787 843.273 C 380.474 841.473 378.791 841.845 378.791 841.845 C 378.791 841.845 376.64 841.59 376.072 842.979 C 375.505 844.368 373.451 853.543 373.197 856.458 C 373.197 856.458 367.817 860.312 364.276 860.351 C 360.735 860.41 361.107 858.101 361.107 858.101 C 361.107 858.101 374.077 853.661 370.536 844.897 C 368.951 842.647 367.093 841.943 364.491 841.982 C 361.87 842.04 358.798 843.625 356.686 848.34 C 355.688 850.589 355.277 852.721 355.277 854.345 C 355.277 854.345 352.851 854.815 351.619 853.778 C 350.387 852.761 349.682 853.778 349.682 853.778 C 349.682 853.778 347.53 856.849 349.624 857.671 C 351.717 858.493 354.964 859.255 354.964 859.255 C 355.258 860.586 356.138 862.757 358.701 864.694 C 362.535 867.609 369.93 864.244 369.93 864.244 L 372.962 862.444 C 372.962 862.444 373.06 865.163 375.27 865.574 C 377.481 865.985 378.4 865.535 382.234 856.223 C 384.484 851.45 384.64 851.704 384.64 851.704 L 384.895 851.646 C 384.895 851.646 383.154 860.762 383.819 863.227 C 384.484 865.692 387.399 865.437 387.399 865.437 C 387.399 865.437 388.983 866.004 390.275 861.486 C 391.566 856.967 394.011 852.252 394.011 852.252 L 394.324 852.252 C 394.324 852.252 393.248 861.329 394.891 864.303 C 396.535 867.276 400.78 865.183 400.78 865.183 C 400.78 865.183 403.753 863.618 404.223 863.148 C 404.223 863.148 407.744 866.122 412.732 865.574 C 423.864 863.383 427.815 860.41 427.815 860.41 C 427.815 860.41 429.732 865.242 435.64 865.691 C 442.409 866.2 446.106 861.936 446.106 861.936 C 446.106 861.936 446.047 864.694 448.415 865.672 C 450.781 866.65 452.366 861.486 452.366 861.486 L 456.318 850.902 L 456.67 850.902 C 456.67 850.902 456.866 857.671 460.778 858.805 C 464.71 859.921 469.777 856.008 469.777 856.008 C 469.777 856.008 471.009 855.186 470.794 853.132" fill="rgb(226,75,49)"/></g></g></g></g></svg>